<?xml version="1.0" standalone="no"?>
<!DOCTYPE svg PUBLIC "-//W3C//DTD SVG 20010904//EN"
 "http://www.w3.org/TR/2001/REC-SVG-20010904/DTD/svg10.dtd">
<svg version="1.0" xmlns="http://www.w3.org/2000/svg"
 width="512.000000pt" height="512.000000pt" viewBox="0 0 512.000000 512.000000"
 preserveAspectRatio="xMidYMid meet">

<g transform="translate(0.000000,512.000000) scale(0.100000,-0.100000)"
fill="#000000" stroke="none">
<path d="M509 4625 c-211 -52 -369 -204 -436 -420 -17 -57 -18 -135 -18 -1645
0 -1511 1 -1588 18 -1645 61 -197 203 -345 389 -406 l73 -24 2025 0 2025 0 74
24 c186 61 327 208 388 407 17 56 18 135 18 1644 0 1509 -1 1588 -18 1644 -61
195 -192 336 -377 404 l-75 27 -2015 2 c-1671 1 -2025 -1 -2071 -12z m4086
-332 c54 -28 119 -100 136 -149 21 -58 21 -3110 0 -3168 -17 -49 -82 -121
-136 -149 l-40 -22 -1995 0 -1995 0 -40 22 c-54 28 -119 100 -136 149 -12 33
-14 295 -14 1589 l0 1550 21 45 c34 72 99 128 174 151 14 4 916 7 2005 6
l1980 -2 40 -22z"/>
<path d="M2459 3781 c-416 -58 -720 -423 -695 -836 3 -55 13 -127 21 -160 24
-88 88 -215 145 -285 l49 -62 -83 -42 c-311 -156 -517 -452 -556 -800 -6 -50
-8 -108 -4 -130 8 -50 64 -112 112 -126 51 -14 2173 -14 2224 0 48 14 104 76
112 126 10 56 -10 207 -39 308 -79 272 -284 514 -537 631 l-70 32 29 34 c77
89 137 203 169 320 13 46 18 101 18 194 0 157 -14 220 -84 361 -100 205 -298
363 -520 417 -81 20 -217 28 -291 18z m255 -343 c233 -77 372 -328 311 -562
-58 -222 -240 -366 -464 -366 -373 0 -603 405 -411 724 46 77 119 141 205 182
119 57 234 64 359 22z m144 -1258 c194 -25 365 -128 479 -287 48 -68 102 -184
103 -220 l0 -23 -880 0 -880 0 0 23 c1 36 55 152 103 220 111 156 287 262 471
286 87 12 517 12 604 1z"/>
</g>
</svg>
